<mxfile host="app.diagrams.net" agent="Mozilla/5.0 (Macintosh; Intel Mac OS X 10_15_7) AppleWebKit/537.36 (KHTML, like Gecko) Chrome/130.0.0.0 Safari/537.36" version="24.8.3">
  <diagram name="第 1 页" id="02pRDtMfngxZLIPCJwna">
    <mxGraphModel dx="2074" dy="1121" grid="1" gridSize="10" guides="1" tooltips="1" connect="1" arrows="1" fold="1" page="1" pageScale="1" pageWidth="2339" pageHeight="3300" math="0" shadow="0">
      <root>
        <mxCell id="0" />
        <mxCell id="1" parent="0" />
        <mxCell id="9tJZbvRRE8fTo7tPUQPN-1" value="AI大模型" style="rounded=0;whiteSpace=wrap;html=1;fillColor=#dae8fc;strokeColor=#6c8ebf;" vertex="1" parent="1">
          <mxGeometry x="440" y="800" width="1000" height="60" as="geometry" />
        </mxCell>
        <mxCell id="9tJZbvRRE8fTo7tPUQPN-2" value="智&lt;div&gt;能&lt;/div&gt;&lt;div&gt;知&lt;/div&gt;&lt;div&gt;识&lt;/div&gt;&lt;div&gt;库&lt;/div&gt;" style="rounded=0;whiteSpace=wrap;html=1;fillColor=#dae8fc;strokeColor=#6c8ebf;" vertex="1" parent="1">
          <mxGeometry x="440" y="240" width="40" height="240" as="geometry" />
        </mxCell>
        <mxCell id="9tJZbvRRE8fTo7tPUQPN-3" value="AI&lt;div&gt;基&lt;/div&gt;&lt;div&gt;座&lt;/div&gt;" style="rounded=0;whiteSpace=wrap;html=1;fillColor=#dae8fc;strokeColor=#6c8ebf;" vertex="1" parent="1">
          <mxGeometry x="440" y="520" width="40" height="240" as="geometry" />
        </mxCell>
        <mxCell id="9tJZbvRRE8fTo7tPUQPN-4" value="" style="rounded=0;whiteSpace=wrap;html=1;fillColor=#dae8fc;strokeColor=#6c8ebf;" vertex="1" parent="1">
          <mxGeometry x="520" y="240" width="120" height="240" as="geometry" />
        </mxCell>
        <mxCell id="9tJZbvRRE8fTo7tPUQPN-5" value="" style="rounded=0;whiteSpace=wrap;html=1;fillColor=#dae8fc;strokeColor=#6c8ebf;" vertex="1" parent="1">
          <mxGeometry x="1320" y="520" width="120" height="240" as="geometry" />
        </mxCell>
        <mxCell id="9tJZbvRRE8fTo7tPUQPN-6" value="" style="rounded=0;whiteSpace=wrap;html=1;fillColor=#dae8fc;strokeColor=#6c8ebf;" vertex="1" parent="1">
          <mxGeometry x="1160" y="520" width="120" height="240" as="geometry" />
        </mxCell>
        <mxCell id="9tJZbvRRE8fTo7tPUQPN-7" value="" style="rounded=0;whiteSpace=wrap;html=1;fillColor=#dae8fc;strokeColor=#6c8ebf;" vertex="1" parent="1">
          <mxGeometry x="840" y="520" width="120" height="240" as="geometry" />
        </mxCell>
        <mxCell id="9tJZbvRRE8fTo7tPUQPN-8" value="" style="rounded=0;whiteSpace=wrap;html=1;fillColor=#dae8fc;strokeColor=#6c8ebf;" vertex="1" parent="1">
          <mxGeometry x="680" y="520" width="120" height="240" as="geometry" />
        </mxCell>
        <mxCell id="9tJZbvRRE8fTo7tPUQPN-9" value="" style="rounded=0;whiteSpace=wrap;html=1;fillColor=#dae8fc;strokeColor=#6c8ebf;" vertex="1" parent="1">
          <mxGeometry x="520" y="520" width="120" height="240" as="geometry" />
        </mxCell>
        <mxCell id="9tJZbvRRE8fTo7tPUQPN-10" value="" style="rounded=0;whiteSpace=wrap;html=1;fillColor=#dae8fc;strokeColor=#6c8ebf;" vertex="1" parent="1">
          <mxGeometry x="1000" y="520" width="120" height="240" as="geometry" />
        </mxCell>
        <mxCell id="9tJZbvRRE8fTo7tPUQPN-11" value="" style="rounded=0;whiteSpace=wrap;html=1;fillColor=#dae8fc;strokeColor=#6c8ebf;" vertex="1" parent="1">
          <mxGeometry x="680" y="240" width="120" height="240" as="geometry" />
        </mxCell>
        <mxCell id="9tJZbvRRE8fTo7tPUQPN-12" value="" style="rounded=0;whiteSpace=wrap;html=1;fillColor=#dae8fc;strokeColor=#6c8ebf;" vertex="1" parent="1">
          <mxGeometry x="840" y="240" width="120" height="240" as="geometry" />
        </mxCell>
        <mxCell id="9tJZbvRRE8fTo7tPUQPN-13" value="" style="rounded=0;whiteSpace=wrap;html=1;fillColor=#dae8fc;strokeColor=#6c8ebf;" vertex="1" parent="1">
          <mxGeometry x="1000" y="240" width="120" height="240" as="geometry" />
        </mxCell>
        <mxCell id="9tJZbvRRE8fTo7tPUQPN-14" value="" style="rounded=0;whiteSpace=wrap;html=1;fillColor=#dae8fc;strokeColor=#6c8ebf;" vertex="1" parent="1">
          <mxGeometry x="1160" y="240" width="120" height="240" as="geometry" />
        </mxCell>
        <mxCell id="9tJZbvRRE8fTo7tPUQPN-15" value="" style="rounded=0;whiteSpace=wrap;html=1;fillColor=#dae8fc;strokeColor=#6c8ebf;" vertex="1" parent="1">
          <mxGeometry x="1320" y="240" width="120" height="240" as="geometry" />
        </mxCell>
        <mxCell id="9tJZbvRRE8fTo7tPUQPN-16" value="智能采集" style="text;html=1;align=center;verticalAlign=middle;whiteSpace=wrap;rounded=0;" vertex="1" parent="1">
          <mxGeometry x="550" y="250" width="60" height="30" as="geometry" />
        </mxCell>
        <mxCell id="9tJZbvRRE8fTo7tPUQPN-17" value="智能入库" style="text;html=1;align=center;verticalAlign=middle;whiteSpace=wrap;rounded=0;" vertex="1" parent="1">
          <mxGeometry x="710" y="250" width="60" height="30" as="geometry" />
        </mxCell>
        <mxCell id="9tJZbvRRE8fTo7tPUQPN-18" value="主题知识库" style="text;html=1;align=center;verticalAlign=middle;whiteSpace=wrap;rounded=0;" vertex="1" parent="1">
          <mxGeometry x="870" y="250" width="60" height="30" as="geometry" />
        </mxCell>
        <mxCell id="9tJZbvRRE8fTo7tPUQPN-19" value="智能搜索" style="text;html=1;align=center;verticalAlign=middle;whiteSpace=wrap;rounded=0;" vertex="1" parent="1">
          <mxGeometry x="1030" y="250" width="60" height="30" as="geometry" />
        </mxCell>
        <mxCell id="9tJZbvRRE8fTo7tPUQPN-20" value="智能问答" style="text;html=1;align=center;verticalAlign=middle;whiteSpace=wrap;rounded=0;" vertex="1" parent="1">
          <mxGeometry x="1190" y="250" width="60" height="30" as="geometry" />
        </mxCell>
        <mxCell id="9tJZbvRRE8fTo7tPUQPN-21" value="智能推荐" style="text;html=1;align=center;verticalAlign=middle;whiteSpace=wrap;rounded=0;" vertex="1" parent="1">
          <mxGeometry x="1350" y="250" width="60" height="30" as="geometry" />
        </mxCell>
        <mxCell id="9tJZbvRRE8fTo7tPUQPN-22" value="外部知识采集" style="rounded=0;whiteSpace=wrap;html=1;" vertex="1" parent="1">
          <mxGeometry x="535" y="300" width="90" height="40" as="geometry" />
        </mxCell>
        <mxCell id="9tJZbvRRE8fTo7tPUQPN-23" value="外部知识采集" style="rounded=0;whiteSpace=wrap;html=1;" vertex="1" parent="1">
          <mxGeometry x="535" y="360" width="90" height="40" as="geometry" />
        </mxCell>
        <mxCell id="9tJZbvRRE8fTo7tPUQPN-24" value="外部知识采集" style="rounded=0;whiteSpace=wrap;html=1;" vertex="1" parent="1">
          <mxGeometry x="535" y="420" width="90" height="40" as="geometry" />
        </mxCell>
        <mxCell id="9tJZbvRRE8fTo7tPUQPN-25" value="智能分类" style="rounded=0;whiteSpace=wrap;html=1;" vertex="1" parent="1">
          <mxGeometry x="695" y="300" width="90" height="40" as="geometry" />
        </mxCell>
        <mxCell id="9tJZbvRRE8fTo7tPUQPN-26" value="智能标签" style="rounded=0;whiteSpace=wrap;html=1;" vertex="1" parent="1">
          <mxGeometry x="695" y="360" width="90" height="40" as="geometry" />
        </mxCell>
        <mxCell id="9tJZbvRRE8fTo7tPUQPN-27" value="智能摘要" style="rounded=0;whiteSpace=wrap;html=1;" vertex="1" parent="1">
          <mxGeometry x="695" y="420" width="90" height="40" as="geometry" />
        </mxCell>
        <mxCell id="9tJZbvRRE8fTo7tPUQPN-28" value="文档知识库" style="rounded=0;whiteSpace=wrap;html=1;" vertex="1" parent="1">
          <mxGeometry x="855" y="300" width="90" height="40" as="geometry" />
        </mxCell>
        <mxCell id="9tJZbvRRE8fTo7tPUQPN-29" value="半结构知识库" style="rounded=0;whiteSpace=wrap;html=1;" vertex="1" parent="1">
          <mxGeometry x="855" y="360" width="90" height="40" as="geometry" />
        </mxCell>
        <mxCell id="9tJZbvRRE8fTo7tPUQPN-30" value="结构化知识库" style="rounded=0;whiteSpace=wrap;html=1;" vertex="1" parent="1">
          <mxGeometry x="855" y="420" width="90" height="40" as="geometry" />
        </mxCell>
        <mxCell id="9tJZbvRRE8fTo7tPUQPN-31" value="自然语义搜索" style="rounded=0;whiteSpace=wrap;html=1;" vertex="1" parent="1">
          <mxGeometry x="1015" y="300" width="90" height="40" as="geometry" />
        </mxCell>
        <mxCell id="9tJZbvRRE8fTo7tPUQPN-32" value="指令搜索" style="rounded=0;whiteSpace=wrap;html=1;" vertex="1" parent="1">
          <mxGeometry x="1015" y="360" width="90" height="40" as="geometry" />
        </mxCell>
        <mxCell id="9tJZbvRRE8fTo7tPUQPN-33" value="可溯源搜索" style="rounded=0;whiteSpace=wrap;html=1;" vertex="1" parent="1">
          <mxGeometry x="1015" y="420" width="90" height="40" as="geometry" />
        </mxCell>
        <mxCell id="9tJZbvRRE8fTo7tPUQPN-34" value="多轮互动回答" style="rounded=0;whiteSpace=wrap;html=1;" vertex="1" parent="1">
          <mxGeometry x="1175" y="300" width="90" height="40" as="geometry" />
        </mxCell>
        <mxCell id="9tJZbvRRE8fTo7tPUQPN-35" value="搜索问答联动" style="rounded=0;whiteSpace=wrap;html=1;" vertex="1" parent="1">
          <mxGeometry x="1175" y="360" width="90" height="40" as="geometry" />
        </mxCell>
        <mxCell id="9tJZbvRRE8fTo7tPUQPN-36" value="多场景助手" style="rounded=0;whiteSpace=wrap;html=1;" vertex="1" parent="1">
          <mxGeometry x="1175" y="420" width="90" height="40" as="geometry" />
        </mxCell>
        <mxCell id="9tJZbvRRE8fTo7tPUQPN-37" value="基于岗位推荐" style="rounded=0;whiteSpace=wrap;html=1;" vertex="1" parent="1">
          <mxGeometry x="1335" y="300" width="90" height="40" as="geometry" />
        </mxCell>
        <mxCell id="9tJZbvRRE8fTo7tPUQPN-38" value="业务场景推荐" style="rounded=0;whiteSpace=wrap;html=1;" vertex="1" parent="1">
          <mxGeometry x="1335" y="360" width="90" height="40" as="geometry" />
        </mxCell>
        <mxCell id="9tJZbvRRE8fTo7tPUQPN-39" value="业务流程推荐" style="rounded=0;whiteSpace=wrap;html=1;" vertex="1" parent="1">
          <mxGeometry x="1335" y="420" width="90" height="40" as="geometry" />
        </mxCell>
        <mxCell id="9tJZbvRRE8fTo7tPUQPN-40" value="数据源" style="rounded=0;whiteSpace=wrap;html=1;" vertex="1" parent="1">
          <mxGeometry x="535" y="580" width="90" height="40" as="geometry" />
        </mxCell>
        <mxCell id="9tJZbvRRE8fTo7tPUQPN-41" value="数据接口" style="rounded=0;whiteSpace=wrap;html=1;" vertex="1" parent="1">
          <mxGeometry x="535" y="640" width="90" height="40" as="geometry" />
        </mxCell>
        <mxCell id="9tJZbvRRE8fTo7tPUQPN-43" value="数据管理" style="text;html=1;align=center;verticalAlign=middle;whiteSpace=wrap;rounded=0;" vertex="1" parent="1">
          <mxGeometry x="550" y="530" width="60" height="30" as="geometry" />
        </mxCell>
        <mxCell id="9tJZbvRRE8fTo7tPUQPN-44" value="资源管理" style="rounded=0;whiteSpace=wrap;html=1;" vertex="1" parent="1">
          <mxGeometry x="695" y="580" width="90" height="40" as="geometry" />
        </mxCell>
        <mxCell id="9tJZbvRRE8fTo7tPUQPN-45" value="指令管理" style="rounded=0;whiteSpace=wrap;html=1;" vertex="1" parent="1">
          <mxGeometry x="695" y="640" width="90" height="40" as="geometry" />
        </mxCell>
        <mxCell id="9tJZbvRRE8fTo7tPUQPN-47" value="智能引擎" style="text;html=1;align=center;verticalAlign=middle;whiteSpace=wrap;rounded=0;" vertex="1" parent="1">
          <mxGeometry x="710" y="530" width="60" height="30" as="geometry" />
        </mxCell>
        <mxCell id="9tJZbvRRE8fTo7tPUQPN-48" value="语料管理" style="rounded=0;whiteSpace=wrap;html=1;" vertex="1" parent="1">
          <mxGeometry x="855" y="580" width="90" height="40" as="geometry" />
        </mxCell>
        <mxCell id="9tJZbvRRE8fTo7tPUQPN-49" value="机器人管理" style="rounded=0;whiteSpace=wrap;html=1;" vertex="1" parent="1">
          <mxGeometry x="855" y="640" width="90" height="40" as="geometry" />
        </mxCell>
        <mxCell id="9tJZbvRRE8fTo7tPUQPN-51" value="问答管理" style="text;html=1;align=center;verticalAlign=middle;whiteSpace=wrap;rounded=0;" vertex="1" parent="1">
          <mxGeometry x="870" y="530" width="60" height="30" as="geometry" />
        </mxCell>
        <mxCell id="9tJZbvRRE8fTo7tPUQPN-52" value="搜索服务" style="rounded=0;whiteSpace=wrap;html=1;" vertex="1" parent="1">
          <mxGeometry x="1015" y="580" width="90" height="40" as="geometry" />
        </mxCell>
        <mxCell id="9tJZbvRRE8fTo7tPUQPN-53" value="文本搜索" style="rounded=0;whiteSpace=wrap;html=1;" vertex="1" parent="1">
          <mxGeometry x="1015" y="640" width="90" height="40" as="geometry" />
        </mxCell>
        <mxCell id="9tJZbvRRE8fTo7tPUQPN-54" value="指令搜索" style="rounded=0;whiteSpace=wrap;html=1;" vertex="1" parent="1">
          <mxGeometry x="1015" y="700" width="90" height="40" as="geometry" />
        </mxCell>
        <mxCell id="9tJZbvRRE8fTo7tPUQPN-55" value="智能服务" style="text;html=1;align=center;verticalAlign=middle;whiteSpace=wrap;rounded=0;" vertex="1" parent="1">
          <mxGeometry x="1030" y="530" width="60" height="30" as="geometry" />
        </mxCell>
        <mxCell id="9tJZbvRRE8fTo7tPUQPN-56" value="文本生成" style="rounded=0;whiteSpace=wrap;html=1;" vertex="1" parent="1">
          <mxGeometry x="1175" y="580" width="90" height="40" as="geometry" />
        </mxCell>
        <mxCell id="9tJZbvRRE8fTo7tPUQPN-57" value="实体识别" style="rounded=0;whiteSpace=wrap;html=1;" vertex="1" parent="1">
          <mxGeometry x="1175" y="640" width="90" height="40" as="geometry" />
        </mxCell>
        <mxCell id="9tJZbvRRE8fTo7tPUQPN-58" value="意图分析" style="rounded=0;whiteSpace=wrap;html=1;" vertex="1" parent="1">
          <mxGeometry x="1175" y="700" width="90" height="40" as="geometry" />
        </mxCell>
        <mxCell id="9tJZbvRRE8fTo7tPUQPN-59" value="自然语言" style="text;html=1;align=center;verticalAlign=middle;whiteSpace=wrap;rounded=0;" vertex="1" parent="1">
          <mxGeometry x="1190" y="530" width="60" height="30" as="geometry" />
        </mxCell>
        <mxCell id="9tJZbvRRE8fTo7tPUQPN-60" value="语音识别" style="rounded=0;whiteSpace=wrap;html=1;" vertex="1" parent="1">
          <mxGeometry x="1335" y="580" width="90" height="40" as="geometry" />
        </mxCell>
        <mxCell id="9tJZbvRRE8fTo7tPUQPN-61" value="语音合成" style="rounded=0;whiteSpace=wrap;html=1;" vertex="1" parent="1">
          <mxGeometry x="1335" y="640" width="90" height="40" as="geometry" />
        </mxCell>
        <mxCell id="9tJZbvRRE8fTo7tPUQPN-63" value="语音服务" style="text;html=1;align=center;verticalAlign=middle;whiteSpace=wrap;rounded=0;" vertex="1" parent="1">
          <mxGeometry x="1350" y="530" width="60" height="30" as="geometry" />
        </mxCell>
        <mxCell id="9tJZbvRRE8fTo7tPUQPN-64" value="AI知识库" style="rounded=0;whiteSpace=wrap;html=1;fillColor=#dae8fc;strokeColor=#6c8ebf;" vertex="1" parent="1">
          <mxGeometry x="440" y="140" width="1000" height="60" as="geometry" />
        </mxCell>
      </root>
    </mxGraphModel>
  </diagram>
</mxfile>
